<svg width="75" height="74" viewBox="0 0 75 74" fill="none" xmlns="http://www.w3.org/2000/svg">
<path d="M60.8792 43.1428C61.0647 45.125 61.7733 45.4835 64.6529 44.8659C64.5821 44.5662 64.5127 44.2649 64.4388 43.9637C64.3032 43.4019 64.4283 42.9289 65.0193 42.7617C65.6209 42.59 65.9706 42.9425 66.1154 43.5013C66.524 45.0723 66.9446 46.6402 67.311 48.2218C67.4361 48.761 67.6276 49.1481 68.1251 49.4644C70.8359 51.186 71.9999 53.8128 72.0888 56.89C72.128 58.2561 71.7089 59.6373 71.5008 61.011C71.4601 61.2806 71.3938 61.5517 71.3968 61.8198C71.4254 65.2585 71.0048 68.6565 70.459 72.0425C70.3354 72.8061 69.8936 73.258 69.3795 73.1149C68.6634 72.9176 68.5714 72.3889 68.7387 71.7488C68.796 71.5334 68.8141 71.3059 68.8383 71.0815C69.1096 68.5978 69.381 66.114 69.6464 63.6303C69.6614 63.4872 69.6298 63.3381 69.6222 63.2221C68.6573 63.2221 67.7316 63.2221 66.7245 63.2221C66.7245 63.3983 66.7396 63.6936 66.723 63.9858C66.5692 66.6819 66.4184 69.3795 66.2465 72.0756C66.2104 72.6435 65.9767 73.1194 65.3027 73.1224C64.7419 73.1239 64.4886 72.6932 64.5263 71.9175C64.6831 68.6445 64.8263 65.3715 64.9982 62.1C65.0464 61.1902 64.3152 60.6977 63.973 59.9988C63.9413 59.9341 63.7981 59.8919 63.7076 59.8919C62.6387 59.8844 61.5712 59.8874 60.4058 59.8874C60.4706 60.9764 60.549 62.0894 60.6018 63.204C60.7405 66.1532 60.8717 69.1039 60.9938 72.053C61.0194 72.654 60.7646 73.1255 60.1088 73.1209C59.4394 73.1164 59.2901 72.6359 59.263 72.0319C59.079 68.0073 58.877 63.9828 58.6463 59.9612C58.6328 59.7172 58.3734 59.3858 58.1413 59.2728C56.3275 58.3932 56.0335 56.2529 57.5548 54.9636C57.7432 54.8039 57.9317 54.4454 57.8819 54.2346C57.3015 51.7704 56.4753 49.3921 55.3279 47.1358C55.251 47.1554 55.1832 47.1539 55.1711 47.178C54.1806 49.2219 53.1946 51.2673 52.207 53.3128C52.0879 53.5613 51.9764 53.8158 51.8256 54.0448C50.4642 56.1188 50.725 58.4504 50.7732 60.7414C50.7778 60.9583 51.0175 61.2189 51.2135 61.3755C54.3736 63.8879 56.1828 67.2045 57.0527 71.0876C57.0588 71.1117 57.0633 71.1373 57.0678 71.1614C57.3543 72.904 57.1477 73.1496 55.3928 73.1496C51.0295 73.1496 46.6663 73.1496 42.3016 73.1496C41.0321 73.1496 40.9055 73.011 40.7532 71.7789C40.5813 70.3796 40.2511 69.0255 39.4491 67.8266C37.958 65.5974 34.819 65.5854 33.3053 67.807C32.5786 68.8734 32.0871 70.3947 32.1851 71.4204C32.9389 71.4204 33.7063 71.4204 34.4752 71.4204C35.6286 71.4204 36.782 71.431 37.9353 71.4174C38.5279 71.4099 38.9576 71.6464 38.9696 72.2488C38.9832 72.892 38.5369 73.1511 37.9188 73.1496C32.5514 73.1465 27.1856 73.1526 21.8183 73.1435C20.977 73.142 20.6543 72.7188 20.7749 71.7925C21.2951 67.8176 22.8706 64.3488 25.8061 61.5623C26.186 61.2023 26.3654 60.8483 26.3383 60.3272C26.2991 59.5771 26.2614 58.8164 26.3443 58.0739C26.4725 56.9367 25.9779 56.048 25.3342 55.0645C24.6632 55.8628 23.7209 56.2453 23.5611 57.5106C23.2129 60.2714 21.1941 62.1166 18.4034 62.4645C17.6993 62.5519 17.2605 62.8365 16.8444 63.4239C14.7171 66.4288 12.5294 69.3916 10.3629 72.3693C10.289 72.4702 10.2091 72.5666 10.1307 72.6646C9.77642 73.1089 9.35427 73.3348 8.84165 72.9387C8.34563 72.5546 8.39086 72.0952 8.74969 71.6268C9.54273 70.5935 10.3493 69.5693 11.1182 68.518C12.3726 66.7979 13.6029 65.0597 14.8392 63.326C14.9824 63.1257 15.1061 62.9103 15.287 62.6287C14.8724 62.5217 14.5226 62.4359 14.1728 62.341C12.843 61.9765 11.649 61.3695 10.7021 60.3453C9.66334 59.2216 9.54122 58.1462 10.2106 56.765C10.3252 56.5285 10.3328 56.1248 10.2061 55.908C7.67622 51.6092 6.15045 46.946 5.11316 42.102C4.99556 41.5523 4.74227 41.1456 4.38194 40.7012C3.76379 39.9391 3.3537 39.0113 2.83506 38.1663C2.62097 37.8169 2.40386 37.4448 2.10534 37.1767C0.909752 36.1058 0.511726 34.6553 0.175513 33.1898C-0.33559 30.9636 0.238836 29.843 2.30436 28.8263C4.0789 27.9527 5.84891 27.0685 7.634 26.2145C8.21145 25.9374 8.82809 25.7416 9.49448 25.4825C8.86729 24.0245 8.24612 22.5815 7.62647 21.1386C7.12592 19.9743 7.22844 19.7167 8.40744 19.1926C9.71159 18.6127 11.0127 18.0252 12.3214 17.4574C13.1777 17.0869 13.5351 17.23 13.921 18.0855C14.5799 19.5435 15.2252 21.006 15.8901 22.4987C16.0092 22.4806 16.1072 22.4851 16.1886 22.452C18.6039 21.4805 21.0147 20.4984 23.433 19.5375C23.8295 19.3793 23.926 19.1368 23.9154 18.7332C23.8491 16.2569 23.7843 13.7807 23.7662 11.3045C23.7405 7.49683 25.7051 4.72841 28.5244 2.44047C29.0687 1.99765 29.5858 2.16785 29.9869 2.87728C30.8598 4.41813 31.9318 5.7933 33.2811 6.94555C34.5793 8.05412 36.0447 8.8479 37.7318 9.17625C38.3243 9.29223 38.6002 9.60703 38.6319 10.1884C38.7133 11.6916 38.463 13.0608 37.2886 14.1618C35.9151 15.4496 35.4673 17.1516 35.2532 19.0766C35.7341 18.9802 36.1472 18.941 36.5332 18.813C38.2173 18.2542 39.8908 17.6683 41.5719 17.0989C41.985 16.9588 42.1418 16.7028 42.1297 16.2554C42.0996 15.1785 42.4418 14.216 43.0011 13.2822C45.3652 9.33741 43.4384 4.17111 40.411 2.58658C37.8992 1.27166 35.3708 1.60302 32.868 2.6167C31.8006 3.04898 31.4071 3.05501 31.1161 2.45554C30.8372 1.87866 31.098 1.49759 32.1534 1.03066C34.3441 0.0636736 36.6282 -0.288778 38.9726 0.257976C42.8835 1.17074 44.8737 3.88945 45.6411 7.64745C46.1055 9.92333 45.6682 12.0802 44.545 14.091C43.4595 16.031 43.6148 19.1233 44.9928 21.0678C45.2385 20.9533 45.5009 20.8343 45.7602 20.7078C53.7479 16.8037 61.7295 12.8891 69.7293 9.01057C70.548 8.61443 71.145 8.13245 71.4269 7.25884C71.5702 6.81451 71.7993 6.39729 72.0647 5.80234C71.6259 5.99363 71.3395 6.11563 71.0545 6.24215C63.0895 9.77422 55.1259 13.3078 47.1608 16.8399C46.9543 16.9317 46.7462 17.0161 46.5412 17.111C46.0105 17.3565 45.5793 17.2089 45.3531 16.6983C45.1285 16.1877 45.323 15.7659 45.8446 15.531C47.0779 14.9767 48.3127 14.4269 49.549 13.8771C56.5522 10.7683 63.5553 7.6595 70.557 4.54917C70.7997 4.44072 71.0349 4.31571 71.4541 4.11086C69.9826 3.59423 68.8895 2.87728 67.2929 3.5611C61.3813 6.09605 55.3913 8.44574 49.4284 10.8632C49.1977 10.9566 48.9293 11.1373 48.7258 11.0861C48.3805 11.0003 47.9011 10.8301 47.8001 10.571C47.6991 10.3074 47.9252 9.84953 48.1288 9.56033C48.2645 9.36754 48.6082 9.31482 48.863 9.2124C55.1485 6.66238 61.4386 4.12141 67.7181 1.55181C68.3935 1.27617 68.9815 1.26412 69.6524 1.53675C70.9972 2.0835 72.3692 2.55796 73.7277 3.07158C74.7348 3.45265 74.8901 3.81565 74.4544 4.77962C73.8468 6.12467 73.1985 7.45314 72.6255 8.81325C72.3527 9.45942 71.9335 9.85857 71.3108 10.1613C63.2041 14.1076 55.1078 18.0704 47.0071 22.0303C46.7191 22.1718 46.4326 22.3179 46.009 22.5318C46.4869 22.9641 46.9091 23.2985 47.2709 23.6886C47.7111 24.163 48.2057 23.9462 48.7213 23.9447C49.3274 23.9416 49.9953 24.0004 50.532 24.2534C52.7212 25.2882 55.0204 25.7807 57.4206 25.8892C60.1887 26.0142 62.5633 26.9827 64.2594 29.2405C64.6755 29.7948 64.9409 30.5253 65.0796 31.2136C65.2982 32.2966 64.6891 33.3073 63.6775 33.7832C63.2945 33.9625 62.8859 34.104 62.4743 34.1989C60.0636 34.7562 58.4684 36.3739 57.1236 38.3049C57.0196 38.454 57.0648 38.829 57.1869 38.9887C57.6709 39.6258 58.1684 40.2644 58.7489 40.8112C59.0459 41.0914 59.56 41.3745 59.9158 41.3143C61.2411 41.0883 62.5422 40.7238 63.8508 40.403C64.2519 40.3051 64.3424 40.0867 64.3032 39.6379C64.181 38.2431 64.1554 36.8408 64.1026 35.4401C64.083 34.9008 64.3876 34.568 64.8972 34.5198C65.4188 34.4701 65.746 34.7758 65.8169 35.303C65.8757 35.7488 65.9224 36.1962 65.9495 36.645C66.0204 37.8681 66.0325 39.0956 66.1591 40.3111C66.2285 40.9739 66.04 41.3941 65.4339 41.605C63.9262 42.1216 62.414 42.6232 60.8792 43.1428ZM31.7282 55.6549C31.677 55.3989 31.6574 55.2558 31.6182 55.1187C30.9111 52.6184 30.7136 50.0578 30.706 47.4762C30.703 46.6854 31.0573 46.1989 31.6046 46.2456C32.3223 46.3074 32.4368 46.815 32.4444 47.431C32.4579 48.4823 32.4399 49.5442 32.5861 50.579C32.8002 52.0822 33.1243 53.5703 33.4666 55.0509C33.5239 55.2964 33.9114 55.6368 34.1511 55.6399C37.1333 55.6805 40.117 55.6624 43.1007 55.6685C43.4881 55.67 43.6314 55.5088 43.6223 55.1262C43.6072 54.4258 43.6133 53.7239 43.6329 53.0236C43.6495 52.4602 43.8741 52.034 44.5164 52.037C45.1647 52.04 45.3682 52.4482 45.3577 53.0341C45.3456 53.7104 45.3697 54.3867 45.3411 55.063C45.3215 55.5239 45.5069 55.6896 45.9562 55.673C46.5578 55.6519 47.1684 55.6037 47.7594 55.6835C48.8359 55.8281 49.4359 55.4802 49.7917 54.3912C50.143 53.3188 50.7582 52.3337 51.316 51.192C47.5905 51.2899 44.0264 50.9495 40.5828 49.7521C37.1106 48.5456 34.1586 46.5694 31.7297 43.7242C30.1271 46.1372 27.8852 47.4702 25.2844 48.2157C25.4095 50.4419 26.3639 53.5327 27.454 55.2362C27.564 55.4079 27.7691 55.6323 27.9349 55.6368C29.1787 55.6715 30.4226 55.6549 31.7282 55.6549ZM32.4157 37.6391C32.4157 38.832 32.3569 39.8623 32.4399 40.879C32.4836 41.4167 32.6419 42.0388 32.969 42.4454C35.7371 45.8826 39.4264 47.8211 43.6525 48.8514C44.1002 48.9598 44.3008 48.7806 44.4576 48.3332C44.7727 47.44 45.1225 46.5469 45.5702 45.7154C46.5759 43.8477 47.0176 41.8384 47.2211 39.7599C47.3297 38.6498 47.2302 37.6436 46.4236 36.6947C45.7617 35.9175 45.3969 34.8903 44.8722 33.9218C41.1859 36.5471 37.1363 38.0609 32.4157 37.6391ZM52.976 39.1107C54.1143 39.4481 54.8168 38.9239 55.251 37.8982C55.3174 37.74 55.438 37.6015 55.539 37.4599C57.2683 35.0394 59.3218 33.0572 62.3613 32.3885C63.4106 32.158 63.6654 31.5495 63.1 30.6458C62.0039 28.8895 60.3952 27.9271 58.3478 27.7524C55.3717 27.4978 52.4226 27.1649 49.7088 25.7657C49.1992 25.5021 48.6549 25.5322 48.2856 26.0292C46.7764 28.0626 45.9969 30.2994 46.5321 32.8524C46.9618 34.9038 48.2434 36.4251 49.6877 37.853C50.6104 38.7658 51.601 39.3954 52.976 39.1107ZM25.6267 12.1917C25.8815 12.1179 26.1408 12.0486 26.3956 11.9658C27.5851 11.5817 28.7687 11.181 29.9627 10.809C30.7181 10.574 31.2081 10.9174 31.2036 11.6992C31.199 12.4477 31.092 13.1963 31.0875 13.9449C31.0845 14.5338 30.792 14.8532 30.302 15.1002C29.0521 15.7328 27.8444 16.4618 26.5584 17.0116C25.6855 17.3851 25.4442 17.8596 25.6282 18.7633C25.9764 20.4789 26.4182 22.1553 27.1946 23.7895C28.6194 23.1614 29.9748 22.5228 31.3619 21.9625C32.7911 21.3856 33.4244 20.3177 33.542 18.8431C33.7244 16.5311 34.4767 14.4706 36.1578 12.7836C36.5136 12.4267 36.6779 11.8483 36.8483 11.3437C36.981 10.9536 36.7609 10.7246 36.3402 10.5981C33.94 9.87212 32.0147 8.43369 30.4211 6.53436C29.8783 5.88669 29.3883 5.19383 28.8757 4.52356C26.5931 6.13973 24.9844 9.90526 25.6267 12.1917ZM46.5608 25.3168C44.3309 23.6299 42.7644 21.5317 42.1945 18.7422C41.6473 18.9591 41.1965 19.1865 40.72 19.3146C40.0687 19.4893 39.9451 19.8929 40.1501 20.4427C40.6446 21.7727 41.1316 23.1057 41.688 24.4101C42.0061 25.1556 42.0106 25.6376 41.5131 25.9178C41.0201 26.1949 40.524 26.0082 40.1667 25.2415C39.6104 24.0456 39.1309 22.8135 38.6485 21.5844C38.4811 21.1551 38.4057 20.6912 38.2776 20.2017C37.3428 20.4201 36.4985 20.6325 35.6467 20.8117C34.8597 20.9774 33.9294 21.9173 33.9294 22.6855C33.9279 24.9869 33.0218 26.9571 31.7659 28.8082C30.9065 30.0749 30.9638 30.3265 32.3268 31.0751C32.5228 31.1835 32.7308 31.2754 32.9434 31.3492C34.5129 31.9005 35.9558 31.4591 37.3398 30.7392C39.2335 29.7541 40.7803 28.3353 42.1659 26.7342C42.6574 26.1663 43.1007 25.5593 43.5861 24.987C43.9329 24.5773 44.3701 24.5411 44.7862 24.8589C45.1843 25.1632 45.2114 25.5804 44.9566 25.9961C44.7877 26.2733 44.6053 26.5504 44.3807 26.7824C44.0158 27.1634 44.1334 27.436 44.5103 27.6906C44.7109 27.8246 44.9144 27.9557 45.13 28.0958C45.617 27.1559 46.0708 26.2733 46.5608 25.3168ZM14.5935 55.5435C14.6658 55.3702 14.7759 55.1955 14.8121 55.0072C15.1935 53.0507 15.6081 51.0986 15.9081 49.13C16.0092 48.4718 15.9926 47.684 15.7212 47.0996C14.5558 44.5858 13.2742 42.1261 12.0379 39.6454C11.9188 39.4059 11.8148 39.1604 11.7093 38.933C11.5902 38.954 11.5344 38.951 11.4952 38.9736C10.0056 39.793 8.51147 40.6049 7.04149 41.4559C6.9073 41.5342 6.84398 41.8881 6.88318 42.0885C7.03847 42.8717 7.23296 43.6474 7.43801 44.4186C8.38181 47.9838 9.63017 51.43 11.4982 54.6262C11.6731 54.9244 12.0229 55.2392 12.344 55.31C13.042 55.4651 13.7733 55.4681 14.5935 55.5435ZM25.1261 46.3164C25.4246 46.2878 25.5528 46.2998 25.6628 46.2607C27.4736 45.613 29.0219 44.6099 30.1316 42.9967C30.5281 42.4198 30.7437 41.8309 30.7015 41.1109C30.6442 40.1379 30.6487 39.1574 30.697 38.1844C30.7301 37.5201 30.6427 37.0412 29.907 36.8047C29.3913 36.639 29.0491 36.2338 29.331 35.6344C29.613 35.0334 30.0683 35.0469 30.6533 35.2397C31.5473 35.5349 32.467 35.8603 33.3942 35.9296C37.3428 36.2233 40.7246 34.6975 43.859 32.4788C44.5179 32.0119 44.9099 30.8054 44.6611 30.0523C44.6249 29.9454 44.5345 29.8385 44.441 29.7692C43.9208 29.3896 43.3916 29.0221 42.8323 28.626C42.5519 28.891 42.2986 29.129 42.0468 29.3685C40.6627 30.688 39.1912 31.8914 37.4197 32.6596C35.5758 33.4594 33.6942 33.6657 31.8383 32.7304C31.1116 32.3644 30.4618 31.8477 29.5888 31.2754C29.3144 31.6113 28.9239 31.9607 28.7068 32.396C28.5108 32.7891 28.3118 33.354 28.4551 33.7034C28.7159 34.3375 28.5636 34.7939 28.2696 35.3165C26.8554 37.8184 25.8513 40.4738 25.3975 43.3145C25.2422 44.2815 25.2166 45.2696 25.1261 46.3164ZM48.1484 66.6126C48.1996 66.5358 48.2524 66.459 48.3037 66.3821C47.5166 65.2314 46.7206 64.0867 45.9456 62.9269C45.6351 62.463 45.2461 62.3184 44.6837 62.3199C39.3948 62.3425 34.1058 62.3606 28.8169 62.3078C27.8173 62.2973 27.0801 62.5579 26.486 63.3306C25.797 64.2268 25.0944 65.1124 24.3361 66.0809C24.6738 66.1893 24.7899 66.2541 24.9105 66.2601C27.16 66.3852 29.4079 66.5162 31.6589 66.6051C31.8775 66.6141 32.1534 66.4032 32.3238 66.221C34.6592 63.7237 38.2429 63.7794 40.524 66.346C40.6899 66.5328 40.9597 66.7497 41.1784 66.7482C43.5032 66.7286 45.825 66.6653 48.1484 66.6126ZM53.8248 41.1335C53.9348 41.3113 54.0555 41.5191 54.1896 41.7194C56.4436 45.0647 58.1759 48.654 59.2539 52.5491C59.4379 53.2148 59.4725 54.1472 59.9203 54.453C60.4239 54.7964 61.327 54.5057 62.0401 54.6036C63.2417 54.7678 63.973 54.2481 64.6107 53.2721C66.0114 51.1272 66.0234 48.9372 65.1083 46.696C64.0891 46.7487 63.1181 46.8481 62.1472 46.8391C60.9576 46.8285 60.1013 46.2245 59.6399 45.1265C59.4183 44.5978 59.3067 44.0239 59.0881 43.4953C58.9841 43.2437 58.773 43.0208 58.5664 42.831C58.1111 42.4153 57.603 42.0553 57.1643 41.6215C56.7436 41.2043 56.3848 40.7238 56.1753 40.4798C55.2797 40.7284 54.5756 40.9242 53.8248 41.1335ZM9.34522 20.6732C12.0802 26.9767 14.7683 33.1747 17.4807 39.427C17.8139 39.2628 18.0913 39.0971 18.3913 38.9842C18.9672 38.7673 19.115 38.469 19.02 37.7973C18.9024 36.9553 19.109 36.0712 19.1451 35.2036C19.1617 34.8044 19.222 34.3526 19.0713 34.0076C17.0284 29.3354 14.9538 24.6797 12.8822 20.0195C12.7752 19.7785 12.6425 19.5495 12.4978 19.2709C11.4258 19.7483 10.4277 20.1927 9.34522 20.6732ZM20.4312 32.7394C22.4439 30.3717 23.8114 29.2781 25.9463 28.4783C26.9956 28.0852 28.1038 27.8503 29.1803 27.5234C29.7502 27.3502 30.4965 27.299 30.8357 26.9089C31.6061 26.0217 31.971 24.8921 32.0569 23.5817C31.7086 23.7187 31.4553 23.8091 31.2096 23.9175C29.9733 24.4628 28.74 25.0171 27.5022 25.5593C26.5102 25.9946 26.1498 25.8771 25.7473 24.8981C25.2362 23.6539 24.7763 22.3902 24.2667 21.0603C21.7429 22.083 19.225 23.1042 16.6258 24.1585C17.0781 25.1813 17.5319 26.1226 17.9119 27.0926C18.1275 27.6409 18.3687 27.7508 18.9114 27.4918C20.1749 26.8863 21.4624 26.3275 22.75 25.7762C23.3862 25.5051 23.9456 25.7431 24.0707 26.3139C24.1989 26.8938 23.828 27.192 23.3636 27.3999C22.0836 27.9723 20.7945 28.5235 19.5281 29.123C19.3321 29.2164 19.0682 29.5869 19.1195 29.7195C19.5055 30.7151 19.9623 31.6836 20.4312 32.7394ZM49.0062 39.793C48.9987 39.8292 48.9701 39.9195 48.961 40.0099C48.7243 42.4741 48.0941 44.8162 46.8638 46.9867C46.5834 47.4822 46.4145 48.0425 46.1944 48.5727C45.9773 49.0984 46.1778 49.3077 46.7221 49.3258C47.7714 49.3605 48.8223 49.4885 49.8701 49.4614C52.9956 49.38 52.3533 49.7099 53.4403 46.7954C53.9921 45.3133 53.9394 43.9968 52.8267 42.7813C52.4076 42.3234 52.0909 41.7722 51.7201 41.2691C51.6175 41.1305 51.515 40.9588 51.3703 40.888C50.5968 40.5115 49.8098 40.162 49.0062 39.793ZM12.5415 32.521C11.9113 31.06 11.3218 29.6863 10.7263 28.3157C10.3448 27.4391 9.72817 27.1469 8.86276 27.5565C6.73543 28.5612 4.62618 29.608 2.52146 30.6608C1.89728 30.9726 1.5867 31.5375 1.75255 32.2228C1.97568 33.1416 2.23199 34.0619 2.58478 34.9385C3.01749 36.0184 3.63564 36.2007 4.68348 35.7368C5.04833 35.5756 5.18252 35.3768 5.0423 34.9822C4.83424 34.3932 4.67292 33.7877 4.46788 33.1988C4.26132 32.6069 4.28394 32.0978 4.93677 31.8221C5.4343 31.6128 5.85494 31.923 6.10823 32.6611C6.34795 33.363 6.57863 34.0664 6.83493 34.8346C7.34754 34.6327 7.77723 34.4384 8.22351 34.2968C8.73009 34.1372 8.79944 33.8525 8.62907 33.3841C8.3984 32.7515 8.21145 32.1008 8.03806 31.4486C7.87523 30.8341 8.29588 30.1819 8.83412 30.3084C9.17184 30.3882 9.54725 30.7512 9.69651 31.0811C10.0176 31.7935 10.2046 32.5677 10.4669 33.3796C11.1997 33.0753 11.8359 32.8132 12.5415 32.521ZM20.1869 55.7679C20.3226 55.7769 20.4448 55.795 20.5669 55.7935C21.9449 55.7649 22.9294 55.0178 23.8642 54.0915C24.41 53.5507 24.5818 53.0974 24.327 52.3292C23.3003 49.2354 23.1345 46.0649 23.6863 42.8536C23.7405 42.5328 23.9667 42.1517 23.4465 41.9815C22.9641 41.8249 22.545 41.7571 22.2615 42.3521C21.6057 43.7287 20.8986 45.0813 20.2352 46.455C20.1342 46.6628 20.1176 46.9355 20.1342 47.1734C20.2005 48.169 20.3648 49.1646 20.3603 50.1587C20.3513 52.0024 20.2503 53.8475 20.1869 55.7679ZM28.9827 29.5643C28.9315 29.5131 28.8802 29.4619 28.829 29.4092C25.4563 30.1638 22.7606 31.8568 21.1292 35.0198C19.9261 37.3544 21.0358 39.6846 23.5868 40.2358C24.0768 40.3413 24.2788 40.2283 24.4672 39.7523C25.1306 38.085 25.8618 36.4447 26.5509 34.7879C26.6398 34.574 26.7077 34.3119 26.67 34.092C26.4483 32.8343 26.7876 31.7769 27.6997 30.8853C28.14 30.4575 28.5561 30.0056 28.9827 29.5643ZM67.617 51.18C66.8677 52.5054 66.1516 53.7721 65.4369 55.0404C65.363 55.1714 65.2877 55.3055 65.247 55.4471C64.668 57.4654 65.4942 59.9039 67.1798 61.1737C68.1296 61.8891 69.0327 61.74 69.6554 60.7369C69.8499 60.4221 69.9931 60.0696 70.1153 59.7172C70.5374 58.5001 70.459 57.253 70.2479 56.0149C69.9178 54.0644 69.1805 52.3307 67.617 51.18ZM55.3656 71.4114C54.9932 70.3118 54.654 69.3614 54.351 68.4005C54.2077 67.9456 53.9213 67.8748 53.4946 67.9004C49.8279 68.1083 46.1597 68.2996 42.4931 68.4969C42.282 68.5089 42.0724 68.5315 41.8417 68.5511C42.0212 69.3223 42.2277 70.0166 42.3302 70.7261C42.4071 71.2547 42.6122 71.4385 43.1504 71.4325C45.2024 71.4069 47.2543 71.4234 49.3063 71.4189C49.4977 71.4189 49.6892 71.3813 49.9154 71.3572C49.8641 70.8902 49.7299 70.4579 49.8008 70.0633C49.8566 69.7561 50.143 69.2936 50.3737 69.2635C50.6752 69.2244 51.1366 69.4639 51.322 69.7289C51.5497 70.0528 51.5406 70.5348 51.6763 70.9324C51.7366 71.1101 51.8965 71.3858 52.0186 71.3903C53.0619 71.4264 54.1067 71.4114 55.3656 71.4114ZM38.4404 60.6058C38.8324 60.6058 39.1053 60.6058 39.3767 60.6058C42.2352 60.6058 45.0938 60.6058 47.9524 60.6058C48.9444 60.6058 48.9444 60.6043 48.9489 59.6223C48.9595 57.4609 48.9595 57.4609 46.7734 57.4609C44.2405 57.4609 41.7076 57.4578 39.1762 57.4654C38.843 57.4669 38.4314 57.3795 38.4389 57.9459C38.4495 58.7908 38.4404 59.6388 38.4404 60.6058ZM21.8167 57.4262C20.8473 57.5151 20.0075 57.6281 19.1632 57.6642C17.155 57.7516 15.1679 57.5783 13.2064 57.1129C12.2249 56.8795 11.4937 57.4292 11.6188 58.3179C11.6716 58.6975 11.9128 59.1267 12.2008 59.3873C14.1215 61.1255 17.9707 61.4147 20.1673 60.0214C21.1021 59.4295 21.6569 58.592 21.8167 57.4262ZM13.1536 38.1151C14.3085 40.4813 15.48 42.7979 16.5685 45.1536C16.9831 46.0498 17.6194 45.491 18.1621 45.5723C18.6431 45.6446 18.7984 45.3389 18.9763 44.9774C19.5251 43.8537 20.0739 42.7271 20.692 41.6411C20.9589 41.1727 20.888 40.9453 20.5171 40.5792C20.1161 40.1831 19.8085 40.15 19.3547 40.4241C18.8843 40.7088 18.3792 40.9347 17.8862 41.1817C16.7947 41.73 16.4871 41.617 15.9926 40.4844C15.5252 39.4149 15.0608 38.344 14.5723 37.2219C14.0929 37.5231 13.6979 37.7717 13.1536 38.1151ZM30.9246 68.4502C30.8628 68.414 30.8221 68.3703 30.7784 68.3673C28.535 68.2092 26.2915 68.0495 24.0481 67.9079C23.8762 67.8974 23.5732 67.9742 23.537 68.0796C23.1782 69.1415 22.8631 70.2185 22.4967 71.4159C25.1201 71.4159 27.4932 71.4249 29.8662 71.3963C30.0336 71.3948 30.2959 71.1463 30.3457 70.9655C30.5673 70.1537 30.7286 69.3253 30.9246 68.4502ZM34.6411 60.6058C36.9131 60.6073 36.7111 60.8047 36.7126 58.4836C36.7126 58.3842 36.7503 58.2531 36.7006 58.1899C36.5091 57.9428 36.304 57.5316 36.0794 57.5166C35.0843 57.4458 34.0802 57.4624 33.0821 57.5151C32.8922 57.5256 32.6072 57.8118 32.5529 58.0212C32.0343 59.9792 32.5183 60.6073 34.4903 60.6073C34.5416 60.6058 34.5913 60.6058 34.6411 60.6058ZM18.3023 55.8929C18.6642 53.2299 18.7546 50.6392 18.4863 48.0425C18.4607 47.7925 18.2767 47.5575 18.1651 47.3165C18.0234 47.5364 17.8455 47.7428 17.752 47.9823C17.6736 48.1841 17.7038 48.4266 17.6721 48.648C17.4369 50.35 17.2183 52.0566 16.95 53.7526C16.8399 54.4499 16.6168 55.1308 16.4253 55.8929C17.1113 55.8929 17.6736 55.8929 18.3023 55.8929ZM53.2142 66.1924C52.3925 64.7901 51.3899 63.7764 50.2772 62.8365C49.5113 62.1904 48.7047 62.3154 47.8544 62.3937C48.6007 63.677 49.3078 64.9045 50.0345 66.1201C50.1219 66.2647 50.3315 66.4409 50.4747 66.4318C51.3401 66.3836 52.204 66.2858 53.2142 66.1924ZM7.79985 36.3378C8.50243 37.7762 9.41306 38.0895 10.7021 37.4057C11.4318 37.0186 12.1766 36.6526 12.8747 36.2142C13.1702 36.029 13.4913 35.7127 13.5667 35.3994C13.6406 35.0906 13.4476 34.6975 13.3029 34.3706C13.2667 34.2908 12.9365 34.2637 12.7857 34.324C11.1363 34.9761 9.49448 35.6509 7.79985 36.3378ZM30.7407 57.4865C29.9522 57.4865 29.1622 57.4729 28.3721 57.5015C28.2651 57.506 28.0796 57.7199 28.0766 57.8419C28.051 58.7336 28.0631 59.6253 28.0631 60.5546C29.0204 60.5546 29.8798 60.5546 30.7407 60.5546C30.7407 59.5334 30.7407 58.5649 30.7407 57.4865ZM60.9471 56.3131C60.9471 56.3116 60.9471 56.3101 60.9471 56.3086C60.3968 56.3086 59.8465 56.3207 59.2962 56.3041C58.8469 56.2905 58.3946 56.292 58.3252 56.8614C58.2528 57.4503 58.7006 57.6612 59.1635 57.7184C60.3998 57.869 61.6406 57.9715 62.8814 58.0829C63.2463 58.1161 63.6096 58.0076 63.4513 57.5603C63.2975 57.128 63.7815 56.3342 62.8241 56.3146C62.1984 56.3041 61.5727 56.3131 60.9471 56.3131ZM4.52517 37.6527C4.85233 38.4931 5.08603 39.3562 5.96349 39.6815C6.66457 39.9406 7.2209 39.4903 7.77271 39.0263C7.42594 38.689 7.10179 38.4133 6.8274 38.0955C6.553 37.7792 6.32835 37.4222 6.06451 37.0592C5.55341 37.255 5.07547 37.4403 4.52517 37.6527ZM25.5754 15.5957C26.7861 14.9601 27.9786 14.3606 29.1365 13.7024C29.3175 13.5985 29.3446 13.2234 29.518 12.7821C28.3827 13.1542 27.4705 13.4539 26.5569 13.7506C25.3327 14.1467 25.3311 14.1452 25.5754 15.5957Z" fill="white"/>
<path d="M53.8473 36.4311C53.8051 37.2053 53.5609 37.5442 53.0106 37.5593C52.4618 37.5759 52.1557 37.2505 52.1361 36.7354C52.1165 36.2112 52.4512 35.8106 52.9518 35.8678C53.3046 35.91 53.6197 36.279 53.8473 36.4311Z" fill="white"/>
<path d="M35.0919 12.6104C34.5551 12.5953 34.2521 12.2956 34.2415 11.7714C34.231 11.2458 34.5446 10.9023 35.0677 10.8933C35.5909 10.8828 35.9196 11.2126 35.9256 11.7398C35.9331 12.2579 35.6512 12.5788 35.0919 12.6104Z" fill="white"/>
</svg>
