<?xml version="1.0" encoding="utf-8"?>
<!-- Generator: Adobe Illustrator 28.0.0, SVG Export Plug-In . SVG Version: 6.00 Build 0)  -->
<svg version="1.1" id="Layer_1" xmlns="http://www.w3.org/2000/svg" xmlns:xlink="http://www.w3.org/1999/xlink" x="0px" y="0px"
	 viewBox="0 0 612 792" style="enable-background:new 0 0 612 792;" xml:space="preserve">
<g>
	<g>
		<path d="M469.67,430.43c1.23,13.16,5.93,15.54,25.03,11.44c-0.47-1.99-0.93-3.99-1.42-5.99c-0.9-3.73-0.07-6.87,3.85-7.98
			c3.99-1.14,6.31,1.2,7.27,4.91c2.71,10.43,5.5,20.84,7.93,31.34c0.83,3.58,2.1,6.15,5.4,8.25c17.98,11.43,25.7,28.87,26.29,49.3
			c0.26,9.07-2.52,18.24-3.9,27.36c-0.27,1.79-0.71,3.59-0.69,5.37c0.19,22.83-2.6,45.39-6.22,67.87c-0.82,5.07-3.75,8.07-7.16,7.12
			c-4.75-1.31-5.36-4.82-4.25-9.07c0.38-1.43,0.5-2.94,0.66-4.43c1.8-16.49,3.6-32.98,5.36-49.47c0.1-0.95-0.11-1.94-0.16-2.71
			c-6.4,0-12.54,0-19.22,0c0,1.17,0.1,3.13-0.01,5.07c-1.02,17.9-2.02,35.81-3.16,53.71c-0.24,3.77-1.79,6.93-6.26,6.95
			c-3.72,0.01-5.4-2.85-5.15-8c1.04-21.73,1.99-43.46,3.13-65.18c0.32-6.04-4.53-9.31-6.8-13.95c-0.21-0.43-1.16-0.71-1.76-0.71
			c-7.09-0.05-14.17-0.03-21.9-0.03c0.43,7.23,0.95,14.62,1.3,22.02c0.92,19.58,1.79,39.17,2.6,58.75c0.17,3.99-1.52,7.12-5.87,7.09
			c-4.44-0.03-5.43-3.22-5.61-7.23c-1.22-26.72-2.56-53.44-4.09-80.14c-0.09-1.62-1.81-3.82-3.35-4.57
			c-12.03-5.84-13.98-20.05-3.89-28.61c1.25-1.06,2.5-3.44,2.17-4.84c-3.85-16.36-9.33-32.15-16.94-47.13
			c-0.51,0.13-0.96,0.12-1.04,0.28c-6.57,13.57-13.11,27.15-19.66,40.73c-0.79,1.65-1.53,3.34-2.53,4.86
			c-9.03,13.77-7.3,29.25-6.98,44.46c0.03,1.44,1.62,3.17,2.92,4.21c20.96,16.68,32.96,38.7,38.73,64.48
			c0.04,0.16,0.07,0.33,0.1,0.49c1.9,11.57,0.53,13.2-11.11,13.2c-28.94,0-57.88,0-86.83,0c-8.42,0-9.26-0.92-10.27-9.1
			c-1.14-9.29-3.33-18.28-8.65-26.24c-9.89-14.8-30.71-14.88-40.75-0.13c-4.82,7.08-8.08,17.18-7.43,23.99c5,0,10.09,0,15.19,0
			c7.65,0,15.3,0.07,22.95-0.02c3.93-0.05,6.78,1.52,6.86,5.52c0.09,4.27-2.87,5.99-6.97,5.98c-35.6-0.02-71.19,0.02-106.79-0.04
			c-5.58-0.01-7.72-2.82-6.92-8.97c3.45-26.39,13.9-49.42,33.37-67.92c2.52-2.39,3.71-4.74,3.53-8.2
			c-0.26-4.98-0.51-10.03,0.04-14.96c0.85-7.55-2.43-13.45-6.7-19.98c-4.45,5.3-10.7,7.84-11.76,16.24
			c-2.31,18.33-15.7,30.58-34.21,32.89c-4.67,0.58-7.58,2.47-10.34,6.37c-14.11,19.95-28.62,39.62-42.99,59.39
			c-0.49,0.67-1.02,1.31-1.54,1.96c-2.35,2.95-5.15,4.45-8.55,1.82c-3.29-2.55-2.99-5.6-0.61-8.71
			c5.26-6.86,10.61-13.66,15.71-20.64c8.32-11.42,16.48-22.96,24.68-34.47c0.95-1.33,1.77-2.76,2.97-4.63
			c-2.75-0.71-5.07-1.28-7.39-1.91c-8.82-2.42-16.74-6.45-23.02-13.25c-6.89-7.46-7.7-14.6-3.26-23.77
			c0.76-1.57,0.81-4.25-0.03-5.69c-16.78-28.54-26.9-59.5-33.78-91.66c-0.78-3.65-2.46-6.35-4.85-9.3
			c-4.1-5.06-6.82-11.22-10.26-16.83c-1.42-2.32-2.86-4.79-4.84-6.57c-7.93-7.11-10.57-16.74-12.8-26.47
			c-3.39-14.78,0.42-22.22,14.12-28.97c11.77-5.8,23.51-11.67,35.35-17.34c3.83-1.84,7.92-3.14,12.34-4.86
			c-4.16-9.68-8.28-19.26-12.39-28.84c-3.32-7.73-2.64-9.44,5.18-12.92c8.65-3.85,17.28-7.75,25.96-11.52
			c5.68-2.46,8.05-1.51,10.61,4.17c4.37,9.68,8.65,19.39,13.06,29.3c0.79-0.12,1.44-0.09,1.98-0.31
			c16.02-6.45,32.01-12.97,48.05-19.35c2.63-1.05,3.27-2.66,3.2-5.34c-0.44-16.44-0.87-32.88-0.99-49.32
			c-0.17-25.28,12.86-43.66,31.56-58.85c3.61-2.94,7.04-1.81,9.7,2.9c5.79,10.23,12.9,19.36,21.85,27.01
			c8.61,7.36,18.33,12.63,29.52,14.81c3.93,0.77,5.76,2.86,5.97,6.72c0.54,9.98-1.12,19.07-8.91,26.38
			c-9.11,8.55-12.08,19.85-13.5,32.63c3.19-0.64,5.93-0.9,8.49-1.75c11.17-3.71,22.27-7.6,33.42-11.38c2.74-0.93,3.78-2.63,3.7-5.6
			c-0.2-7.15,2.07-13.54,5.78-19.74c15.68-26.19,2.9-60.49-17.18-71.01c-16.66-8.73-33.43-6.53-50.03,0.2
			c-7.08,2.87-9.69,2.91-11.62-1.07c-1.85-3.83-0.12-6.36,6.88-9.46c14.53-6.42,29.68-8.76,45.23-5.13
			c25.94,6.06,39.14,24.11,44.23,49.06c3.08,15.11,0.18,29.43-7.27,42.78c-7.2,12.88-6.17,33.41,2.97,46.32
			c1.63-0.76,3.37-1.55,5.09-2.39c52.98-25.92,105.92-51.91,158.98-77.66c5.43-2.63,9.39-5.83,11.26-11.63
			c0.95-2.95,2.47-5.72,4.23-9.67c-2.91,1.27-4.81,2.08-6.7,2.92c-52.83,23.45-105.65,46.91-158.48,70.36
			c-1.37,0.61-2.75,1.17-4.11,1.8c-3.52,1.63-6.38,0.65-7.88-2.74c-1.49-3.39-0.2-6.19,3.26-7.75c8.18-3.68,16.37-7.33,24.57-10.98
			c46.45-20.64,92.9-41.28,139.34-61.93c1.61-0.72,3.17-1.55,5.95-2.91c-9.76-3.43-17.01-8.19-27.6-3.65
			c-39.21,16.83-78.94,32.43-118.49,48.48c-1.53,0.62-3.31,1.82-4.66,1.48c-2.29-0.57-5.47-1.7-6.14-3.42
			c-0.67-1.75,0.83-4.79,2.18-6.71c0.9-1.28,3.18-1.63,4.87-2.31c41.69-16.93,83.41-33.8,125.06-50.86
			c4.48-1.83,8.38-1.91,12.83-0.1c8.92,3.63,18.02,6.78,27.03,10.19c6.68,2.53,7.71,4.94,4.82,11.34
			c-4.03,8.93-8.33,17.75-12.13,26.78c-1.81,4.29-4.59,6.94-8.72,8.95c-53.77,26.2-107.47,52.51-161.2,78.8
			c-1.91,0.94-3.81,1.91-6.62,3.33c3.17,2.87,5.97,5.09,8.37,7.68c2.92,3.15,6.2,1.71,9.62,1.7c4.02-0.02,8.45,0.37,12.01,2.05
			c14.52,6.87,29.77,10.14,45.69,10.86c18.36,0.83,34.11,7.26,45.36,22.25c2.76,3.68,4.52,8.53,5.44,13.1
			c1.45,7.19-2.59,13.9-9.3,17.06c-2.54,1.19-5.25,2.13-7.98,2.76c-15.99,3.7-26.57,14.44-35.49,27.26
			c-0.69,0.99-0.39,3.48,0.42,4.54c3.21,4.23,6.51,8.47,10.36,12.1c1.97,1.86,5.38,3.74,7.74,3.34c8.79-1.5,17.42-3.92,26.1-6.05
			c2.66-0.65,3.26-2.1,3-5.08c-0.81-9.26-0.98-18.57-1.33-27.87c-0.13-3.58,1.89-5.79,5.27-6.11c3.46-0.33,5.63,1.7,6.1,5.2
			c0.39,2.96,0.7,5.93,0.88,8.91c0.47,8.12,0.55,16.27,1.39,24.34c0.46,4.4-0.79,7.19-4.81,8.59
			C489.88,423.65,479.85,426.98,469.67,430.43z M276.32,513.5c-0.34-1.7-0.47-2.65-0.73-3.56c-4.69-16.6-6-33.6-6.05-50.74
			c-0.02-5.25,2.33-8.48,5.96-8.17c4.76,0.41,5.52,3.78,5.57,7.87c0.09,6.98-0.03,14.03,0.94,20.9c1.42,9.98,3.57,19.86,5.84,29.69
			c0.38,1.63,2.95,3.89,4.54,3.91c19.78,0.27,39.57,0.15,59.36,0.19c2.57,0.01,3.52-1.06,3.46-3.6c-0.1-4.65-0.06-9.31,0.07-13.96
			c0.11-3.74,1.6-6.57,5.86-6.55c4.3,0.02,5.65,2.73,5.58,6.62c-0.08,4.49,0.08,8.98-0.11,13.47c-0.13,3.06,1.1,4.16,4.08,4.05
			c3.99-0.14,8.04-0.46,11.96,0.07c7.14,0.96,11.12-1.35,13.48-8.58c2.33-7.12,6.41-13.66,10.11-21.24
			c-24.71,0.65-48.35-1.61-71.19-9.56c-23.03-8.01-42.61-21.13-58.72-40.02c-10.63,16.02-25.5,24.87-42.75,29.82
			c0.83,14.78,7.16,35.3,14.39,46.61c0.73,1.14,2.09,2.63,3.19,2.66C259.41,513.61,267.66,513.5,276.32,513.5z M280.88,393.89
			c0,7.92-0.39,14.76,0.16,21.51c0.29,3.57,1.34,7.7,3.51,10.4c18.36,22.82,42.83,35.69,70.86,42.53c2.97,0.72,4.3-0.47,5.34-3.44
			c2.09-5.93,4.41-11.86,7.38-17.38c6.67-12.4,9.6-25.74,10.95-39.54c0.72-7.37,0.06-14.05-5.29-20.35
			c-4.39-5.16-6.81-11.98-10.29-18.41C339.05,386.64,312.19,396.69,280.88,393.89z M417.25,403.66c7.55,2.24,12.21-1.24,15.09-8.05
			c0.44-1.05,1.24-1.97,1.91-2.91c11.47-16.07,25.09-29.23,45.25-33.67c6.96-1.53,8.65-5.57,4.9-11.57
			c-7.27-11.66-17.94-18.05-31.52-19.21c-19.74-1.69-39.3-3.9-57.3-13.19c-3.38-1.75-6.99-1.55-9.44,1.75
			c-10.01,13.5-15.18,28.35-11.63,45.3c2.85,13.62,11.35,23.72,20.93,33.2C401.56,401.37,408.13,405.55,417.25,403.66z
			 M235.85,224.94c1.69-0.49,3.41-0.95,5.1-1.5c7.89-2.55,15.74-5.21,23.66-7.68c5.01-1.56,8.26,0.72,8.23,5.91
			c-0.03,4.97-0.74,9.94-0.77,14.91c-0.02,3.91-1.96,6.03-5.21,7.67c-8.29,4.2-16.3,9.04-24.83,12.69
			c-5.79,2.48-7.39,5.63-6.17,11.63c2.31,11.39,5.24,22.52,10.39,33.37c9.45-4.17,18.44-8.41,27.64-12.13
			c9.48-3.83,13.68-10.92,14.46-20.71c1.21-15.35,6.2-29.03,17.35-40.23c2.36-2.37,3.45-6.21,4.58-9.56
			c0.88-2.59-0.58-4.11-3.37-4.95c-15.92-4.82-28.69-14.37-39.26-26.98c-3.6-4.3-6.85-8.9-10.25-13.35
			C242.26,184.76,231.59,209.76,235.85,224.94z M374.7,312.08c-14.79-11.2-25.18-25.13-28.96-43.65c-3.63,1.44-6.62,2.95-9.78,3.8
			c-4.32,1.16-5.14,3.84-3.78,7.49c3.28,8.83,6.51,17.68,10.2,26.34c2.11,4.95,2.14,8.15-1.16,10.01c-3.27,1.84-6.56,0.6-8.93-4.49
			c-3.69-7.94-6.87-16.12-10.07-24.28c-1.11-2.85-1.61-5.93-2.46-9.18c-6.2,1.45-11.8,2.86-17.45,4.05
			c-5.22,1.1-11.39,7.34-11.39,12.44c-0.01,15.28-6.02,28.36-14.35,40.65c-5.7,8.41-5.32,10.08,3.72,15.05
			c1.3,0.72,2.68,1.33,4.09,1.82c10.41,3.66,19.98,0.73,29.16-4.05c12.56-6.54,22.82-15.96,32.01-26.59c3.26-3.77,6.2-7.8,9.42-11.6
			c2.3-2.72,5.2-2.96,7.96-0.85c2.64,2.02,2.82,4.79,1.13,7.55c-1.12,1.84-2.33,3.68-3.82,5.22c-2.42,2.53-1.64,4.34,0.86,6.03
			c1.33,0.89,2.68,1.76,4.11,2.69C368.44,324.29,371.45,318.43,374.7,312.08z M162.67,512.76c0.48-1.15,1.21-2.31,1.45-3.56
			c2.53-12.99,5.28-25.95,7.27-39.02c0.67-4.37,0.56-9.6-1.24-13.48c-7.73-16.69-16.23-33.02-24.43-49.49
			c-0.79-1.59-1.48-3.22-2.18-4.73c-0.79,0.14-1.16,0.12-1.42,0.27c-9.88,5.44-19.79,10.83-29.54,16.48
			c-0.89,0.52-1.31,2.87-1.05,4.2c1.03,5.2,2.32,10.35,3.68,15.47c6.26,23.67,14.54,46.55,26.93,67.77
			c1.16,1.98,3.48,4.07,5.61,4.54C152.38,512.24,157.23,512.26,162.67,512.76z M232.53,451.5c1.98-0.19,2.83-0.11,3.56-0.37
			c12.01-4.3,22.28-10.96,29.64-21.67c2.63-3.83,4.06-7.74,3.78-12.52c-0.38-6.46-0.35-12.97-0.03-19.43
			c0.22-4.41-0.36-7.59-5.24-9.16c-3.42-1.1-5.69-3.79-3.82-7.77c1.87-3.99,4.89-3.9,8.77-2.62c5.93,1.96,12.03,4.12,18.18,4.58
			c26.19,1.95,48.62-8.18,69.41-22.91c4.37-3.1,6.97-11.11,5.32-16.11c-0.24-0.71-0.84-1.42-1.46-1.88
			c-3.45-2.52-6.96-4.96-10.67-7.59c-1.86,1.76-3.54,3.34-5.21,4.93c-9.18,8.76-18.94,16.75-30.69,21.85
			c-12.23,5.31-24.71,6.68-37.02,0.47c-4.82-2.43-9.13-5.86-14.92-9.66c-1.82,2.23-4.41,4.55-5.85,7.44
			c-1.3,2.61-2.62,6.36-1.67,8.68c1.73,4.21,0.72,7.24-1.23,10.71c-9.38,16.61-16.04,34.24-19.05,53.1
			C233.3,437.99,233.13,444.55,232.53,451.5z M385.23,586.25c0.34-0.51,0.69-1.02,1.03-1.53c-5.22-7.64-10.5-15.24-15.64-22.94
			c-2.06-3.08-4.64-4.04-8.37-4.03c-35.08,0.15-70.16,0.27-105.24-0.08c-6.63-0.07-11.52,1.66-15.46,6.79
			c-4.57,5.95-9.23,11.83-14.26,18.26c2.24,0.72,3.01,1.15,3.81,1.19c14.92,0.83,29.83,1.7,44.76,2.29
			c1.45,0.06,3.28-1.34,4.41-2.55c15.49-16.58,39.26-16.21,54.39,0.83c1.1,1.24,2.89,2.68,4.34,2.67
			C354.42,587.02,369.82,586.6,385.23,586.25z M422.88,417.09c0.73,1.18,1.53,2.56,2.42,3.89c14.95,22.21,26.44,46.04,33.59,71.9
			c1.22,4.42,1.45,10.61,4.42,12.64c3.34,2.28,9.33,0.35,14.06,1c7.97,1.09,12.82-2.36,17.05-8.84c9.29-14.24,9.37-28.78,3.3-43.66
			c-6.76,0.35-13.2,1.01-19.64,0.95c-7.89-0.07-13.57-4.08-16.63-11.37c-1.47-3.51-2.21-7.32-3.66-10.83
			c-0.69-1.67-2.09-3.15-3.46-4.41c-3.02-2.76-6.39-5.15-9.3-8.03c-2.79-2.77-5.17-5.96-6.56-7.58
			C432.53,414.4,427.86,415.7,422.88,417.09z M127.86,281.25c18.14,41.85,35.97,83,53.96,124.51c2.21-1.09,4.05-2.19,6.04-2.94
			c3.82-1.44,4.8-3.42,4.17-7.88c-0.78-5.59,0.59-11.46,0.83-17.22c0.11-2.65,0.51-5.65-0.49-7.94
			c-13.55-31.02-27.31-61.93-41.05-92.87c-0.71-1.6-1.59-3.12-2.55-4.97C141.66,275.11,135.04,278.06,127.86,281.25z M201.39,361.36
			c13.35-15.72,22.42-22.98,36.58-28.29c6.96-2.61,14.31-4.17,21.45-6.34c3.78-1.15,8.73-1.49,10.98-4.08
			c5.11-5.89,7.53-13.39,8.1-22.09c-2.31,0.91-3.99,1.51-5.62,2.23c-8.2,3.62-16.38,7.3-24.59,10.9c-6.58,2.89-8.97,2.11-11.64-4.39
			c-3.39-8.26-6.44-16.65-9.82-25.48c-16.74,6.79-33.44,13.57-50.68,20.57c3,6.79,6.01,13.04,8.53,19.48
			c1.43,3.64,3.03,4.37,6.63,2.65c8.38-4.02,16.92-7.73,25.46-11.39c4.22-1.8,7.93-0.22,8.76,3.57c0.85,3.85-1.61,5.83-4.69,7.21
			c-8.49,3.8-17.04,7.46-25.44,11.44c-1.3,0.62-3.05,3.08-2.71,3.96C195.25,347.92,198.28,354.35,201.39,361.36z M390.92,408.19
			c-0.05,0.24-0.24,0.84-0.3,1.44c-1.57,16.36-5.75,31.91-13.91,46.32c-1.86,3.29-2.98,7.01-4.44,10.53c-1.44,3.49-0.11,4.88,3.5,5
			c6.96,0.23,13.93,1.08,20.88,0.9c20.73-0.54,16.47,1.65,23.68-17.7c3.66-9.84,3.31-18.58-4.07-26.65
			c-2.78-3.04-4.88-6.7-7.34-10.04c-0.68-0.92-1.36-2.06-2.32-2.53C401.47,412.96,396.25,410.64,390.92,408.19z M149.06,359.91
			c-4.18-9.7-8.09-18.82-12.04-27.92c-2.53-5.82-6.62-7.76-12.36-5.04c-14.11,6.67-28.1,13.62-42.06,20.61
			c-4.14,2.07-6.2,5.82-5.1,10.37c1.48,6.1,3.18,12.21,5.52,18.03c2.87,7.17,6.97,8.38,13.92,5.3c2.42-1.07,3.31-2.39,2.38-5.01
			c-1.38-3.91-2.45-7.93-3.81-11.84c-1.37-3.93-1.22-7.31,3.11-9.14c3.3-1.39,6.09,0.67,7.77,5.57c1.59,4.66,3.12,9.33,4.82,14.43
			c3.4-1.34,6.25-2.63,9.21-3.57c3.36-1.06,3.82-2.95,2.69-6.06c-1.53-4.2-2.77-8.52-3.92-12.85c-1.08-4.08,1.71-8.41,5.28-7.57
			c2.24,0.53,4.73,2.94,5.72,5.13c2.13,4.73,3.37,9.87,5.11,15.26C140.16,363.59,144.38,361.85,149.06,359.91z M199.77,514.25
			c0.9,0.06,1.71,0.18,2.52,0.17c9.14-0.19,15.67-5.15,21.87-11.3c3.62-3.59,4.76-6.6,3.07-11.7c-6.81-20.54-7.91-41.59-4.25-62.91
			c0.36-2.13,1.86-4.66-1.59-5.79c-3.2-1.04-5.98-1.49-7.86,2.46c-4.35,9.14-9.04,18.12-13.44,27.24c-0.67,1.38-0.78,3.19-0.67,4.77
			c0.44,6.61,1.53,13.22,1.5,19.82C200.86,489.25,200.19,501.5,199.77,514.25z M258.11,340.28c-0.34-0.34-0.68-0.68-1.02-1.03
			c-22.37,5.01-40.25,16.25-51.07,37.25c-7.98,15.5-0.62,30.97,16.3,34.63c3.25,0.7,4.59-0.05,5.84-3.21
			c4.4-11.07,9.25-21.96,13.82-32.96c0.59-1.42,1.04-3.16,0.79-4.62c-1.47-8.35,0.78-15.37,6.83-21.29
			C252.52,346.21,255.28,343.21,258.11,340.28z M514.36,483.79c-4.97,8.8-9.72,17.21-14.46,25.63c-0.49,0.87-0.99,1.76-1.26,2.7
			c-3.84,13.4,1.64,29.59,12.82,38.02c6.3,4.75,12.29,3.76,16.42-2.9c1.29-2.09,2.24-4.43,3.05-6.77c2.8-8.08,2.28-16.36,0.88-24.58
			C529.62,502.94,524.73,491.43,514.36,483.79z M433.1,618.11c-2.47-7.3-4.72-13.61-6.73-19.99c-0.95-3.02-2.85-3.49-5.68-3.32
			c-24.32,1.38-48.65,2.65-72.97,3.96c-1.4,0.08-2.79,0.23-4.32,0.36c1.19,5.12,2.56,9.73,3.24,14.44c0.51,3.51,1.87,4.73,5.44,4.69
			c13.61-0.17,27.22-0.06,40.83-0.09c1.27,0,2.54-0.25,4.04-0.41c-0.34-3.1-1.23-5.97-0.76-8.59c0.37-2.04,2.27-5.11,3.8-5.31
			c2-0.26,5.06,1.33,6.29,3.09c1.51,2.15,1.45,5.35,2.35,7.99c0.4,1.18,1.46,3.01,2.27,3.04
			C417.82,618.21,424.75,618.11,433.1,618.11z M320.84,546.37c2.6,0,4.41,0,6.21,0c18.96,0,37.92,0,56.88,0
			c6.58,0,6.58-0.01,6.61-6.53c0.07-14.35,0.07-14.35-14.43-14.35c-16.8,0-33.6-0.02-50.39,0.03c-2.21,0.01-4.94-0.57-4.89,3.19
			C320.9,534.32,320.84,539.95,320.84,546.37z M210.58,525.26c-6.43,0.59-12,1.34-17.6,1.58c-13.32,0.58-26.5-0.57-39.51-3.66
			c-6.51-1.55-11.36,2.1-10.53,8c0.35,2.52,1.95,5.37,3.86,7.1c12.74,11.54,38.27,13.46,52.84,4.21
			C205.84,538.56,209.52,533,210.58,525.26z M153.12,397.05c7.66,15.71,15.43,31.09,22.65,46.73c2.75,5.95,6.97,2.24,10.57,2.78
			c3.19,0.48,4.22-1.55,5.4-3.95c3.64-7.46,7.28-14.94,11.38-22.15c1.77-3.11,1.3-4.62-1.16-7.05c-2.66-2.63-4.7-2.85-7.71-1.03
			c-3.12,1.89-6.47,3.39-9.74,5.03c-7.24,3.64-9.28,2.89-12.56-4.63c-3.1-7.1-6.18-14.21-9.42-21.66
			C159.35,393.12,156.73,394.77,153.12,397.05z M270.99,598.45c-0.41-0.24-0.68-0.53-0.97-0.55c-14.88-1.05-29.76-2.11-44.64-3.05
			c-1.14-0.07-3.15,0.44-3.39,1.14c-2.38,7.05-4.47,14.2-6.9,22.15c17.4,0,33.14,0.06,48.88-0.13c1.11-0.01,2.85-1.66,3.18-2.86
			C268.62,609.76,269.69,604.26,270.99,598.45z M295.64,546.37c15.07,0.01,13.73,1.32,13.74-14.09c0-0.66,0.25-1.53-0.08-1.95
			c-1.27-1.64-2.63-4.37-4.12-4.47c-6.6-0.47-13.26-0.36-19.88-0.01c-1.26,0.07-3.15,1.97-3.51,3.36
			c-3.44,13-0.23,17.17,12.85,17.17C294.98,546.37,295.31,546.37,295.64,546.37z M187.27,515.08c2.4-17.68,3-34.88,1.22-52.12
			c-0.17-1.66-1.39-3.22-2.13-4.82c-0.94,1.46-2.12,2.83-2.74,4.42c-0.52,1.34-0.32,2.95-0.53,4.42
			c-1.56,11.3-3.01,22.63-4.79,33.89c-0.73,4.63-2.21,9.15-3.48,14.21C179.37,515.08,183.1,515.08,187.27,515.08z M418.83,583.46
			c-5.45-9.31-12.1-16.04-19.48-22.28c-5.08-4.29-10.43-3.46-16.07-2.94c4.95,8.52,9.64,16.67,14.46,24.74
			c0.58,0.96,1.97,2.13,2.92,2.07C406.4,584.73,412.13,584.08,418.83,583.46z M117.61,385.25c4.66,9.55,10.7,11.63,19.25,7.09
			c4.84-2.57,9.78-5,14.41-7.91c1.96-1.23,4.09-3.33,4.59-5.41c0.49-2.05-0.79-4.66-1.75-6.83c-0.24-0.53-2.43-0.71-3.43-0.31
			C139.74,376.21,128.85,380.69,117.61,385.25z M269.77,525.66c-5.23,0-10.47-0.09-15.71,0.1c-0.71,0.03-1.94,1.45-1.96,2.26
			c-0.17,5.92-0.09,11.84-0.09,18.01c6.35,0,12.05,0,17.76,0C269.77,539.25,269.77,532.82,269.77,525.66z M470.12,517.87
			c0-0.01,0-0.02,0-0.03c-3.65,0-7.3,0.08-10.95-0.03c-2.98-0.09-5.98-0.08-6.44,3.7c-0.48,3.91,2.49,5.31,5.56,5.69
			c8.2,1,16.43,1.68,24.66,2.42c2.42,0.22,4.83-0.5,3.78-3.47c-1.02-2.87,2.19-8.14-4.16-8.27
			C478.42,517.81,474.27,517.87,470.12,517.87z M95.89,393.98c2.17,5.58,3.72,11.31,9.54,13.47c4.65,1.72,8.34-1.27,12-4.35
			c-2.3-2.24-4.45-4.07-6.27-6.18c-1.82-2.1-3.31-4.47-5.06-6.88C102.71,391.34,99.54,392.57,95.89,393.98z M235.51,247.54
			c8.03-4.22,15.94-8.2,23.62-12.57c1.2-0.69,1.38-3.18,2.53-6.11c-7.53,2.47-13.58,4.46-19.64,6.43
			C233.9,237.92,233.89,237.91,235.51,247.54z"/>
		<path d="M423.03,385.87c-0.28,5.14-1.9,7.39-5.55,7.49c-3.64,0.11-5.67-2.05-5.8-5.47c-0.13-3.48,2.09-6.14,5.41-5.76
			C419.43,382.41,421.52,384.86,423.03,385.87z"/>
		<path d="M298.63,227.72c-3.56-0.1-5.57-2.09-5.64-5.57c-0.07-3.49,2.01-5.77,5.48-5.83c3.47-0.07,5.65,2.12,5.69,5.62
			C304.21,225.38,302.34,227.51,298.63,227.72z"/>
	</g>
</g>
</svg>
